<svg xmlns="http://www.w3.org/2000/svg" xmlns:xlink="http://www.w3.org/1999/xlink" xmlns:lucid="lucid" width="542" height="542"><g transform="translate(-739 -299)" lucid:page-tab-id="0_0"><path d="M500 0h1000v1000H500z" fill="#fff"/><path d="M820 340c0 22.1-17.9 40-40 40s-40-17.9-40-40 17.9-40 40-40 40 17.9 40 40z" stroke="#000" stroke-width="2" fill="#fff"/><use xlink:href="#a" transform="matrix(1,0,0,1,745,305) translate(30.48068576388889 43.40277777777778)"/><path d="M960 460c0 22.1-17.9 40-40 40s-40-17.9-40-40 17.9-40 40-40 40 17.9 40 40z" stroke="#000" stroke-width="2" fill="#fff"/><use xlink:href="#b" transform="matrix(1,0,0,1,885,425) translate(28.223741319444443 43.40277777777778)"/><path d="M1080 560c0 22.1-17.9 40-40 40s-40-17.9-40-40 17.9-40 40-40 40 17.9 40 40z" stroke="#000" stroke-width="2" fill="#fff"/><use xlink:href="#c" transform="matrix(1,0,0,1,1005,525) translate(28.13693576388889 43.40277777777778)"/><path d="M1180 680c0 22.1-17.9 40-40 40s-40-17.9-40-40 17.9-40 40-40 40 17.9 40 40z" stroke="#000" stroke-width="2" fill="#fff"/><use xlink:href="#d" transform="matrix(1,0,0,1,1105,645) translate(27.822265625 43.40277777777778)"/><path d="M1124.17 641.75l-53.65-53.65" stroke="#3a414a" fill="none"/><path d="M1125 641.9l-.95.4-.22-.22.67-.67zM1070.87 587.77l-.68.68-.36-.36.17-.16.47-.56z" stroke="#3a414a" stroke-width=".05" fill="#3a414a"/><path d="M1008.4 533.22l-52.5-52.5" stroke="#3a414a" fill="none"/><path d="M1009.05 533.2l-.6.75-.4-.4.67-.67zM956.24 480.4l-.67.67-.3-.3.53-.8z" stroke="#3a414a" stroke-width=".05" fill="#3a414a"/><path d="M891.56 429.88l-73.5-73.5" stroke="#3a414a" fill="none"/><path d="M892.26 429.9l-.7.66-.34-.35.67-.66zM818.4 356.04l-.68.67-.24-.23.43-.9z" stroke="#3a414a" stroke-width=".05" fill="#3a414a"/><path d="M1166.57 711.88l46.86 56.24" stroke="#3a414a" fill="none"/><path d="M1166.94 711.6l-.73.6-.34-.42.4-.3.34-.3zM1214.13 768.22l-.4.3-.33.3-.34-.4.73-.62z" stroke="#3a414a" stroke-width=".05" fill="#3a414a"/><path d="M1280 800c0 22.1-17.9 40-40 40s-40-17.9-40-40 17.9-40 40-40 40 17.9 40 40z" stroke="#000" stroke-width="2" fill="#fff"/><use xlink:href="#e" transform="matrix(1,0,0,1,1205,765) translate(28.245442708333336 43.40277777777778)"/><defs><path d="M653-1490V0H466v-1314h-10L96-1047v-204l324-239h233" id="f"/><use transform="matrix(0.010850694444444444,0,0,0.010850694444444444,0,0)" xlink:href="#f" id="a"/><path d="M154 0v-137l495-537c165-179 249-281 249-418 0-156-121-253-280-253-170 0-278 110-278 278H158c0-264 200-443 465-443 266 0 455 183 455 416 0 161-73 288-336 568L416-179v12h687V0H154" id="g"/><use transform="matrix(0.010850694444444444,0,0,0.010850694444444444,0,0)" xlink:href="#g" id="b"/><path d="M635 20c-292 0-500-160-510-396h192c11 142 145 229 315 229 187 0 323-105 323-260 0-161-125-274-346-274H488v-165h121c174 0 294-100 294-254 0-148-104-245-266-245-152 0-291 85-297 230H157c8-234 222-395 484-395 278 0 448 188 448 400 0 168-95 291-247 336v12c190 31 301 169 301 357 0 244-216 425-508 425" id="h"/><use transform="matrix(0.010850694444444444,0,0,0.010850694444444444,0,0)" xlink:href="#h" id="c"/><path d="M120-303v-155l652-1032h231v1020h202v167h-202V0H821v-303H120zm702-167v-782h-12L323-482v12h499" id="i"/><use transform="matrix(0.010850694444444444,0,0,0.010850694444444444,0,0)" xlink:href="#i" id="d"/><path d="M626 20c-262 0-458-168-468-396h184c12 133 134 229 284 229 180 0 311-137 311-326 0-192-136-335-323-335-92 0-196 33-255 78l-178-22 88-738h784v167H429l-51 435h8c61-51 160-87 263-87 273 0 474 211 474 499 0 286-210 496-497 496" id="j"/><use transform="matrix(0.010850694444444444,0,0,0.010850694444444444,0,0)" xlink:href="#j" id="e"/></defs></g></svg>