<svg xmlns="http://www.w3.org/2000/svg" xmlns:xlink="http://www.w3.org/1999/xlink" xmlns:lucid="lucid" width="742" height="542"><g transform="translate(-499 -299)" lucid:page-tab-id="0_0"><path d="M0 0h1500v1000H0z" fill="#fff"/><path d="M820 340c0 22.1-17.9 40-40 40s-40-17.9-40-40 17.9-40 40-40 40 17.9 40 40z" stroke="#000" stroke-width="2" fill="#fff"/><use xlink:href="#a" transform="matrix(1,0,0,1,745,305) translate(28.245442708333336 43.40277777777778)"/><path d="M980 440c0 22.1-17.9 40-40 40s-40-17.9-40-40 17.9-40 40-40 40 17.9 40 40z" stroke="#000" stroke-width="2" fill="#fff"/><use xlink:href="#b" transform="matrix(1,0,0,1,905,405) translate(23.72612847222222 43.40277777777778)"/><path d="M680 440c0 22.1-17.9 40-40 40s-40-17.9-40-40 17.9-40 40-40 40 17.9 40 40z" stroke="#000" stroke-width="2" fill="#fff"/><use xlink:href="#c" transform="matrix(1,0,0,1,605,405) translate(23.47113715277778 43.40277777777778)"/><path d="M1080 560c0 22.1-17.9 40-40 40s-40-17.9-40-40 17.9-40 40-40 40 17.9 40 40z" stroke="#000" stroke-width="2" fill="#fff"/><use xlink:href="#d" transform="matrix(1,0,0,1,1005,525) translate(21.214192708333336 43.40277777777778)"/><path d="M900 560c0 22.1-17.9 40-40 40s-40-17.9-40-40 17.9-40 40-40 40 17.9 40 40z" stroke="#000" stroke-width="2" fill="#fff"/><use xlink:href="#e" transform="matrix(1,0,0,1,825,525) translate(23.704427083333336 43.40277777777778)"/><path d="M1160 680c0 22.1-17.9 40-40 40s-40-17.9-40-40 17.9-40 40-40 40 17.9 40 40z" stroke="#000" stroke-width="2" fill="#fff"/><use xlink:href="#f" transform="matrix(1,0,0,1,1085,645) translate(21.46918402777778 43.40277777777778)"/><path d="M580 560c0 22.1-17.9 40-40 40s-40-17.9-40-40 17.9-40 40-40 40 17.9 40 40z" stroke="#000" stroke-width="2" fill="#fff"/><use xlink:href="#g" transform="matrix(1,0,0,1,505,525) translate(28.223741319444443 43.40277777777778)"/><path d="M540.38 518.67l64.65-56.34" stroke="#3a414a" fill="none"/><path d="M540.7 519.02l-.02.02-.67-.04-.75.03.83-.73zM605.47 462.12l.2.27-.34.3-.63-.72.47-.4z" stroke="#3a414a" stroke-width=".05" fill="#3a414a"/><path d="M1119.65 638.64l-49.13-50.53" stroke="#3a414a" fill="none"/><path d="M1120.7 639.04l-.7-.04-.64.02-.06-.06.68-.66zM1070.87 587.78l-.68.67-.36-.35.17-.16.47-.56z" stroke="#3a414a" stroke-width=".05" fill="#3a414a"/><path d="M860.3 518.6l44.8-56.2" stroke="#3a414a" fill="none"/><path d="M860.7 518.9l-.12.13-.57-.03-.63.02.58-.72zM905.47 462.12l.2.3-.2.27-.76-.6.45-.55z" stroke="#3a414a" stroke-width=".05" fill="#3a414a"/><path d="M1039.63 518.66L975.9 460.7" stroke="#3a414a" fill="none"/><path d="M1040.76 519.04l-.75-.04-.68.02h-.02l.64-.72zM976.24 460.37l-.64.7-.32-.3.52-.8z" stroke="#3a414a" stroke-width=".05" fill="#3a414a"/><path d="M911.52 409.93L821.4 340.3" stroke="#3a414a" fill="none"/><path d="M912.27 409.9l-.7.67-.35-.27.58-.75zM821.7 339.94l-.58.75-.15-.13.03-.56-.02-.62z" stroke="#3a414a" stroke-width=".05" fill="#3a414a"/><path d="M667.08 408.64l71.56-68.3" stroke="#3a414a" fill="none"/><path d="M667.4 408.97l-.32.32-.74-.62.42-.4zM739 340l.02.63-.06.07-.66-.7.74-.7z" stroke="#3a414a" stroke-width=".05" fill="#3a414a"/><path d="M1143 714.5l34 51" stroke="#3a414a" fill="none"/><path d="M1143.4 714.25l-.8.53-.26-.4.77-.58zM1177.66 765.63l-.77.57-.3-.45.8-.53z" stroke="#3a414a" stroke-width=".05" fill="#3a414a"/><path d="M1240 800c0 22.1-17.9 40-40 40s-40-17.9-40-40 17.9-40 40-40 40 17.9 40 40z" stroke="#000" stroke-width="2" fill="#fff"/><use xlink:href="#h" transform="matrix(1,0,0,1,1165,765) translate(21.12738715277778 43.40277777777778)"/><defs><path d="M626 20c-262 0-458-168-468-396h184c12 133 134 229 284 229 180 0 311-137 311-326 0-192-136-335-323-335-92 0-196 33-255 78l-178-22 88-738h784v167H429l-51 435h8c61-51 160-87 263-87 273 0 474 211 474 499 0 286-210 496-497 496" id="i"/><use transform="matrix(0.010850694444444444,0,0,0.010850694444444444,0,0)" xlink:href="#i" id="a"/><path d="M653-1490V0H466v-1314h-10L96-1047v-204l324-239h233" id="j"/><g id="b"><use transform="matrix(0.010850694444444444,0,0,0.010850694444444444,0,0)" xlink:href="#j"/><use transform="matrix(0.010850694444444444,0,0,0.010850694444444444,9.038628472222221,0)" xlink:href="#i"/></g><path d="M646 20c-332 0-524-278-524-764 0-483 194-766 524-766s524 283 524 766c0 485-191 764-524 764zm0-166c218 0 341-220 341-598 0-380-123-601-341-601s-341 222-341 601c0 378 123 598 341 598" id="k"/><g id="c"><use transform="matrix(0.010850694444444444,0,0,0.010850694444444444,0,0)" xlink:href="#j"/><use transform="matrix(0.010850694444444444,0,0,0.010850694444444444,9.038628472222221,0)" xlink:href="#k"/></g><path d="M154 0v-137l495-537c165-179 249-281 249-418 0-156-121-253-280-253-170 0-278 110-278 278H158c0-264 200-443 465-443 266 0 455 183 455 416 0 161-73 288-336 568L416-179v12h687V0H154" id="l"/><g id="d"><use transform="matrix(0.010850694444444444,0,0,0.010850694444444444,0,0)" xlink:href="#l"/><use transform="matrix(0.010850694444444444,0,0,0.010850694444444444,13.55251736111111,0)" xlink:href="#k"/></g><g id="e"><use transform="matrix(0.010850694444444444,0,0,0.010850694444444444,0,0)" xlink:href="#j"/><use transform="matrix(0.010850694444444444,0,0,0.010850694444444444,9.038628472222221,0)" xlink:href="#l"/></g><g id="f"><use transform="matrix(0.010850694444444444,0,0,0.010850694444444444,0,0)" xlink:href="#l"/><use transform="matrix(0.010850694444444444,0,0,0.010850694444444444,13.55251736111111,0)" xlink:href="#i"/></g><use transform="matrix(0.010850694444444444,0,0,0.010850694444444444,0,0)" xlink:href="#l" id="g"/><path d="M635 20c-292 0-500-160-510-396h192c11 142 145 229 315 229 187 0 323-105 323-260 0-161-125-274-346-274H488v-165h121c174 0 294-100 294-254 0-148-104-245-266-245-152 0-291 85-297 230H157c8-234 222-395 484-395 278 0 448 188 448 400 0 168-95 291-247 336v12c190 31 301 169 301 357 0 244-216 425-508 425" id="m"/><g id="h"><use transform="matrix(0.010850694444444444,0,0,0.010850694444444444,0,0)" xlink:href="#m"/><use transform="matrix(0.010850694444444444,0,0,0.010850694444444444,13.726128472222221,0)" xlink:href="#k"/></g></defs></g></svg>