<svg xmlns="http://www.w3.org/2000/svg" xmlns:xlink="http://www.w3.org/1999/xlink" xmlns:lucid="lucid" width="582" height="282"><g transform="translate(-559 -339)" lucid:page-tab-id="0_0"><path d="M500 0h1000v1000H500z" fill="#fff"/><path d="M880 380c0 22.1-17.9 40-40 40s-40-17.9-40-40 17.9-40 40-40 40 17.9 40 40z" stroke="#000" stroke-width="2" fill="#fff"/><use xlink:href="#a" transform="matrix(1,0,0,1,805,345) translate(27.822265625 43.40277777777778)"/><path d="M1040 471.6c0 22.1-17.9 40-40 40s-40-17.9-40-40 17.9-40 40-40 40 17.9 40 40z" stroke="#000" stroke-width="2" fill="#fff"/><use xlink:href="#b" transform="matrix(1,0,0,1,965,436.6000000000001) translate(28.10980902777778 43.40277777777778)"/><path d="M720 471.6c0 22.1-17.9 40-40 40s-40-17.9-40-40 17.9-40 40-40 40 17.9 40 40z" stroke="#000" stroke-width="2" fill="#fff"/><use xlink:href="#c" transform="matrix(1,0,0,1,645,436.6000000000001) translate(28.223741319444443 43.40277777777778)"/><path d="M1140 580c0 22.1-17.9 40-40 40s-40-17.9-40-40 17.9-40 40-40 40 17.9 40 40z" stroke="#000" stroke-width="2" fill="#fff"/><use xlink:href="#d" transform="matrix(1,0,0,1,1065,545) translate(28.712022569444443 43.40277777777778)"/><path d="M960 580c0 22.1-17.9 40-40 40s-40-17.9-40-40 17.9-40 40-40 40 17.9 40 40z" stroke="#000" stroke-width="2" fill="#fff"/><use xlink:href="#e" transform="matrix(1,0,0,1,885,545) translate(28.245442708333336 43.40277777777778)"/><path d="M800 580c0 22.1-17.9 40-40 40s-40-17.9-40-40 17.9-40 40-40 40 17.9 40 40z" stroke="#000" stroke-width="2" fill="#fff"/><use xlink:href="#f" transform="matrix(1,0,0,1,725,545) translate(28.13693576388889 43.40277777777778)"/><path d="M640 580c0 22.1-17.9 40-40 40s-40-17.9-40-40 17.9-40 40-40 40 17.9 40 40z" stroke="#000" stroke-width="2" fill="#fff"/><use xlink:href="#g" transform="matrix(1,0,0,1,565,545) translate(30.48068576388889 43.40277777777778)"/><path d="M600.35 538.65l44.7-44.7" stroke="#3a414a" fill="none"/><path d="M600.7 538.97l-.07.07-.62-.04-.7.02.73-.72zM645.47 493.72l.2.28-.3.3-.67-.68.46-.45z" stroke="#3a414a" stroke-width=".05" fill="#3a414a"/><path d="M759.65 538.65L714.9 493.9" stroke="#3a414a" fill="none"/><path d="M760.7 539.04l-.7-.04-.65.02-.05-.05.67-.67zM715.25 493.57l-.68.67-.28-.28.5-.83z" stroke="#3a414a" stroke-width=".05" fill="#3a414a"/><path d="M920.35 538.65l44.7-44.7" stroke="#3a414a" fill="none"/><path d="M920.7 538.97l-.07.07-.62-.04-.7.02.73-.72zM965.47 493.72l.2.28-.3.3-.67-.68.46-.45z" stroke="#3a414a" stroke-width=".05" fill="#3a414a"/><path d="M1099.6 538.7l-63.66-46.43" stroke="#3a414a" fill="none"/><path d="M1100.88 539.05l-.87-.05-.65.02.52-.7zM1036.23 491.9l-.56.76-.38-.3.5-.8z" stroke="#3a414a" stroke-width=".05" fill="#3a414a"/><path d="M971.5 441.56l-90.1-61.28" stroke="#3a414a" fill="none"/><path d="M972.27 441.5l-.7.67-.34-.23.53-.8zM881.7 379.9l-.54.78-.2-.13.04-.54-.02-.6z" stroke="#3a414a" stroke-width=".05" fill="#3a414a"/><path d="M707.13 440.3l91.45-60.03" stroke="#3a414a" fill="none"/><path d="M707.4 440.7l-.3.2-.77-.63.55-.36zM799 380l.02.56-.2.12-.5-.8.7-.47z" stroke="#3a414a" stroke-width=".05" fill="#3a414a"/><defs><path d="M120-303v-155l652-1032h231v1020h202v167h-202V0H821v-303H120zm702-167v-782h-12L323-482v12h499" id="h"/><use transform="matrix(0.010850694444444444,0,0,0.010850694444444444,0,0)" xlink:href="#h" id="a"/><path d="M646 20c-249 0-524-159-524-708 0-524 209-822 547-822 250 0 431 161 467 395H950c-33-129-126-227-281-227-229 0-367 208-367 566h12c80-124 212-198 367-198 255 0 467 205 467 493 0 278-198 501-502 501zm0-167c179 0 318-148 318-334 0-182-133-328-313-328-181 0-322 156-322 330 0 176 134 332 317 332" id="i"/><use transform="matrix(0.010850694444444444,0,0,0.010850694444444444,0,0)" xlink:href="#i" id="b"/><path d="M154 0v-137l495-537c165-179 249-281 249-418 0-156-121-253-280-253-170 0-278 110-278 278H158c0-264 200-443 465-443 266 0 455 183 455 416 0 161-73 288-336 568L416-179v12h687V0H154" id="j"/><use transform="matrix(0.010850694444444444,0,0,0.010850694444444444,0,0)" xlink:href="#j" id="c"/><path d="M200 0l662-1311v-12H98v-167h963v177L400 0H200" id="k"/><use transform="matrix(0.010850694444444444,0,0,0.010850694444444444,0,0)" xlink:href="#k" id="d"/><path d="M626 20c-262 0-458-168-468-396h184c12 133 134 229 284 229 180 0 311-137 311-326 0-192-136-335-323-335-92 0-196 33-255 78l-178-22 88-738h784v167H429l-51 435h8c61-51 160-87 263-87 273 0 474 211 474 499 0 286-210 496-497 496" id="l"/><use transform="matrix(0.010850694444444444,0,0,0.010850694444444444,0,0)" xlink:href="#l" id="e"/><path d="M635 20c-292 0-500-160-510-396h192c11 142 145 229 315 229 187 0 323-105 323-260 0-161-125-274-346-274H488v-165h121c174 0 294-100 294-254 0-148-104-245-266-245-152 0-291 85-297 230H157c8-234 222-395 484-395 278 0 448 188 448 400 0 168-95 291-247 336v12c190 31 301 169 301 357 0 244-216 425-508 425" id="m"/><use transform="matrix(0.010850694444444444,0,0,0.010850694444444444,0,0)" xlink:href="#m" id="f"/><path d="M653-1490V0H466v-1314h-10L96-1047v-204l324-239h233" id="n"/><use transform="matrix(0.010850694444444444,0,0,0.010850694444444444,0,0)" xlink:href="#n" id="g"/></defs></g></svg>