<svg xmlns="http://www.w3.org/2000/svg" xmlns:xlink="http://www.w3.org/1999/xlink" xmlns:lucid="lucid" width="522" height="722"><g transform="translate(-619 -299)" lucid:page-tab-id="0_0"><path d="M500 0h1000v1500H500z" fill="#fff"/><path d="M820 340c0 22.1-17.9 40-40 40s-40-17.9-40-40 17.9-40 40-40 40 17.9 40 40z" stroke="#000" stroke-width="2" fill="#fff"/><use xlink:href="#a" transform="matrix(1,0,0,1,745,305) translate(23.47113715277778 43.40277777777778)"/><path d="M960 460c0 22.1-17.9 40-40 40s-40-17.9-40-40 17.9-40 40-40 40 17.9 40 40z" stroke="#000" stroke-width="2" fill="#fff"/><use xlink:href="#b" transform="matrix(1,0,0,1,885,425) translate(21.46918402777778 43.40277777777778)"/><path d="M1100 580c0 22.1-17.9 40-40 40s-40-17.9-40-40 17.9-40 40-40 40 17.9 40 40z" stroke="#000" stroke-width="2" fill="#fff"/><use xlink:href="#c" transform="matrix(1,0,0,1,1025,545) translate(21.12738715277778 43.40277777777778)"/><path d="M860 580c0 22.1-17.9 40-40 40s-40-17.9-40-40 17.9-40 40-40 40 17.9 40 40z" stroke="#000" stroke-width="2" fill="#fff"/><use xlink:href="#d" transform="matrix(1,0,0,1,785,545) translate(23.72612847222222 43.40277777777778)"/><path d="M830.9 540.04l55.64-55.63" stroke="#3a414a" fill="none"/><path d="M831.25 540.37l-.2.2-.88-.3-.14-.03.55-.55zM887.17 484.44l-.3.3-.68-.66.4-.4z" stroke="#3a414a" stroke-width=".05" fill="#3a414a"/><path d="M1028.4 553.22l-72.5-72.5" stroke="#3a414a" fill="none"/><path d="M1029.05 553.2l-.6.75-.4-.4.67-.67zM956.24 480.4l-.67.67-.3-.3.53-.8z" stroke="#3a414a" stroke-width=".05" fill="#3a414a"/><path d="M891.56 429.88l-73.5-73.5" stroke="#3a414a" fill="none"/><path d="M892.26 429.9l-.7.66-.34-.35.67-.66zM818.4 356.04l-.68.67-.24-.23.43-.9z" stroke="#3a414a" stroke-width=".05" fill="#3a414a"/><path d="M790.7 609.3l-61.4 61.4" stroke="#3a414a" fill="none"/><path d="M791.38 609.3l-.35.35-.67-.68.37-.37zM729.64 671.03l-.37.37-.65-.7.35-.35z" stroke="#3a414a" stroke-width=".05" fill="#3a414a"/><path d="M740 700c0 22.1-17.9 40-40 40s-40-17.9-40-40 17.9-40 40-40 40 17.9 40 40z" stroke="#000" stroke-width="2" fill="#fff"/><use xlink:href="#e" transform="matrix(1,0,0,1,665,665) translate(23.704427083333336 43.40277777777778)"/><path d="M980 700c0 22.1-17.9 40-40 40s-40-17.9-40-40 17.9-40 40-40 40 17.9 40 40z" stroke="#000" stroke-width="2" fill="#fff"/><use xlink:href="#f" transform="matrix(1,0,0,1,905,665) translate(21.214192708333336 43.40277777777778)"/><path d="M849.3 609.3l61.4 61.4" stroke="#3a414a" fill="none"/><path d="M849.64 608.97l-.67.67-.37-.37.7-.65zM911.4 670.73l-.7.65-.35-.35.68-.67z" stroke="#3a414a" stroke-width=".05" fill="#3a414a"/><path d="M1140 820c0 22.1-17.9 40-40 40s-40-17.9-40-40 17.9-40 40-40 40 17.9 40 40z" stroke="#000" stroke-width="2" fill="#fff"/><use xlink:href="#g" transform="matrix(1,0,0,1,1065,785) translate(21.219618055555557 43.40277777777778)"/><path d="M840 820c0 22.1-17.9 40-40 40s-40-17.9-40-40 17.9-40 40-40 40 17.9 40 40z" stroke="#000" stroke-width="2" fill="#fff"/><use xlink:href="#h" transform="matrix(1,0,0,1,765,785) translate(23.590494791666668 43.40277777777778)"/><path d="M831.5 793l77-66" stroke="#3a414a" fill="none"/><path d="M831.8 793.36l-.37.32-.65-.7.4-.34zM909.22 727l-.4.36-.63-.72.37-.32z" stroke="#3a414a" stroke-width=".05" fill="#3a414a"/><path d="M1066.83 795.12l-93.66-70.24" stroke="#3a414a" fill="none"/><path d="M1067.53 795.05l-.6.74-.4-.3.58-.76zM973.47 724.5l-.58.76-.43-.3.6-.75z" stroke="#3a414a" stroke-width=".05" fill="#3a414a"/><path d="M800 861.5v77" stroke="#3a414a" fill="none"/><path d="M800 861l.48-.02v.53h-.96v-.53zM800.48 939.03L800 939l-.48.02v-.53h.96z" stroke="#3a414a" stroke-width=".05" fill="#3a414a"/><path d="M840 980c0 22.1-17.9 40-40 40s-40-17.9-40-40 17.9-40 40-40 40 17.9 40 40z" stroke="#000" stroke-width="2" fill="#fff"/><use xlink:href="#i" transform="matrix(1,0,0,1,765,945) translate(24.192708333333336 43.40277777777778)"/><path d="M1100 861.5v77" stroke="#3a414a" fill="none"/><path d="M1100 861l.47-.02v.53h-.94v-.53zM1100.47 939.03l-.46-.03-.47.02v-.53h.94z" stroke="#3a414a" stroke-width=".05" fill="#3a414a"/><path d="M1140 980c0 22.1-17.9 40-40 40s-40-17.9-40-40 17.9-40 40-40 40 17.9 40 40z" stroke="#000" stroke-width="2" fill="#fff"/><use xlink:href="#j" transform="matrix(1,0,0,1,1065,945) translate(21.44748263888889 43.40277777777778)"/><path d="M755.12 373.17l-70.24 93.66" stroke="#3a414a" fill="none"/><path d="M755.8 373.07l-.3.4-.76-.58.3-.43zM685.26 467.1l-.3.43-.75-.6.3-.4z" stroke="#3a414a" stroke-width=".05" fill="#3a414a"/><path d="M700 500c0 22.1-17.9 40-40 40s-40-17.9-40-40 17.9-40 40-40 40 17.9 40 40z" stroke="#000" stroke-width="2" fill="#fff"/><use xlink:href="#k" transform="matrix(1,0,0,1,625,465) translate(28.223741319444443 43.40277777777778)"/><defs><path d="M653-1490V0H466v-1314h-10L96-1047v-204l324-239h233" id="l"/><path d="M646 20c-332 0-524-278-524-764 0-483 194-766 524-766s524 283 524 766c0 485-191 764-524 764zm0-166c218 0 341-220 341-598 0-380-123-601-341-601s-341 222-341 601c0 378 123 598 341 598" id="m"/><g id="a"><use transform="matrix(0.010850694444444444,0,0,0.010850694444444444,0,0)" xlink:href="#l"/><use transform="matrix(0.010850694444444444,0,0,0.010850694444444444,9.038628472222221,0)" xlink:href="#m"/></g><path d="M154 0v-137l495-537c165-179 249-281 249-418 0-156-121-253-280-253-170 0-278 110-278 278H158c0-264 200-443 465-443 266 0 455 183 455 416 0 161-73 288-336 568L416-179v12h687V0H154" id="n"/><path d="M626 20c-262 0-458-168-468-396h184c12 133 134 229 284 229 180 0 311-137 311-326 0-192-136-335-323-335-92 0-196 33-255 78l-178-22 88-738h784v167H429l-51 435h8c61-51 160-87 263-87 273 0 474 211 474 499 0 286-210 496-497 496" id="o"/><g id="b"><use transform="matrix(0.010850694444444444,0,0,0.010850694444444444,0,0)" xlink:href="#n"/><use transform="matrix(0.010850694444444444,0,0,0.010850694444444444,13.55251736111111,0)" xlink:href="#o"/></g><path d="M635 20c-292 0-500-160-510-396h192c11 142 145 229 315 229 187 0 323-105 323-260 0-161-125-274-346-274H488v-165h121c174 0 294-100 294-254 0-148-104-245-266-245-152 0-291 85-297 230H157c8-234 222-395 484-395 278 0 448 188 448 400 0 168-95 291-247 336v12c190 31 301 169 301 357 0 244-216 425-508 425" id="p"/><g id="c"><use transform="matrix(0.010850694444444444,0,0,0.010850694444444444,0,0)" xlink:href="#p"/><use transform="matrix(0.010850694444444444,0,0,0.010850694444444444,13.726128472222221,0)" xlink:href="#m"/></g><g id="d"><use transform="matrix(0.010850694444444444,0,0,0.010850694444444444,0,0)" xlink:href="#l"/><use transform="matrix(0.010850694444444444,0,0,0.010850694444444444,9.038628472222221,0)" xlink:href="#o"/></g><g id="e"><use transform="matrix(0.010850694444444444,0,0,0.010850694444444444,0,0)" xlink:href="#l"/><use transform="matrix(0.010850694444444444,0,0,0.010850694444444444,9.038628472222221,0)" xlink:href="#n"/></g><g id="f"><use transform="matrix(0.010850694444444444,0,0,0.010850694444444444,0,0)" xlink:href="#n"/><use transform="matrix(0.010850694444444444,0,0,0.010850694444444444,13.55251736111111,0)" xlink:href="#m"/></g><path d="M120-303v-155l652-1032h231v1020h202v167h-202V0H821v-303H120zm702-167v-782h-12L323-482v12h499" id="q"/><g id="g"><use transform="matrix(0.010850694444444444,0,0,0.010850694444444444,0,0)" xlink:href="#n"/><use transform="matrix(0.010850694444444444,0,0,0.010850694444444444,13.20529513888889,0)" xlink:href="#q"/></g><path d="M646 20c-249 0-524-159-524-708 0-524 209-822 547-822 250 0 431 161 467 395H950c-33-129-126-227-281-227-229 0-367 208-367 566h12c80-124 212-198 367-198 255 0 467 205 467 493 0 278-198 501-502 501zm0-167c179 0 318-148 318-334 0-182-133-328-313-328-181 0-322 156-322 330 0 176 134 332 317 332" id="r"/><g id="h"><use transform="matrix(0.010850694444444444,0,0,0.010850694444444444,0,0)" xlink:href="#l"/><use transform="matrix(0.010850694444444444,0,0,0.010850694444444444,9.038628472222221,0)" xlink:href="#r"/></g><path d="M200 0l662-1311v-12H98v-167h963v177L400 0H200" id="s"/><g id="i"><use transform="matrix(0.010850694444444444,0,0,0.010850694444444444,0,0)" xlink:href="#l"/><use transform="matrix(0.010850694444444444,0,0,0.010850694444444444,9.038628472222221,0)" xlink:href="#s"/></g><g id="j"><use transform="matrix(0.010850694444444444,0,0,0.010850694444444444,0,0)" xlink:href="#n"/><use transform="matrix(0.010850694444444444,0,0,0.010850694444444444,13.55251736111111,0)" xlink:href="#n"/></g><use transform="matrix(0.010850694444444444,0,0,0.010850694444444444,0,0)" xlink:href="#n" id="k"/></defs></g></svg>